<svg width="91" height="35" viewBox="0 0 91 35" fill="none" xmlns="http://www.w3.org/2000/svg">
<g clip-path="url(#clip0_103_2)">
<path fill-rule="evenodd" clip-rule="evenodd" d="M88.61 19.09H6.39L19.16 31.45C19.91 32.18 19.91 33.27 19.16 33.99C18.78 34.35 18.22 34.54 17.85 34.54C17.48 34.54 16.91 34.36 16.54 33.99L0.559998 18.54C-0.190002 17.81 -0.190002 16.72 0.559998 16L16.53 0.550002C17.28 -0.179998 18.41 -0.179998 19.16 0.550002C19.91 1.28 19.91 2.37 19.16 3.09L6.39 15.45H88.61C89.74 15.45 90.49 16.18 90.49 17.27C90.49 18.36 89.74 19.09 88.61 19.09Z" fill="white"/>
</g>
<defs>
<clipPath id="clip0_103_2">
<rect width="90.48" height="34.54" fill="white"/>
</clipPath>
</defs>
</svg>
