<svg width="63" height="63" viewBox="0 0 63 63" fill="none" xmlns="http://www.w3.org/2000/svg">
<g clip-path="url(#clip0_4_2)">
<path d="M39.15 9.36L37.62 10.77L39.41 11.42L39.15 9.36Z" fill="white"/>
<path d="M20.65 12.56L22.35 11.69L20.66 10.48L20.65 12.56Z" fill="white"/>
<path d="M48.05 15.2L46.05 15.78L47.37 17.16L48.05 15.2Z" fill="white"/>
<path d="M43.99 12.59C44.21 12.24 44.12 11.83 43.63 11.53L42.43 10.79L41.68 12.01L42.88 12.75C43.37 13.05 43.77 12.94 43.99 12.59Z" fill="white"/>
<path d="M23.3 53.06L24.83 51.64L23.03 51L23.3 53.06Z" fill="white"/>
<path d="M18.45 49.83C18.23 50.18 18.32 50.59 18.81 50.89L20.01 51.62L20.75 50.4L19.55 49.67C19.06 49.37 18.66 49.48 18.45 49.83Z" fill="white"/>
<path d="M9.79 31.97L9.82 30.06L7.96 30.98L9.79 31.97Z" fill="white"/>
<path d="M8.67 34.36C8.35 34.42 8.17 34.69 8.25 35.12L8.55 36.67L9.64 36.46L9.34 34.91C9.26 34.48 8.99 34.3 8.67 34.36Z" fill="white"/>
<path d="M14.4 47.25L16.39 46.66L15.07 45.28L14.4 47.25Z" fill="white"/>
<path d="M9.9 25.06C9.23 24.91 8.68 25.25 8.49 26.11L8.2 27.41L10.45 27.9L10.73 26.61C10.93 25.75 10.56 25.21 9.9 25.06Z" fill="white"/>
<path d="M12.06 21.58L9.98 21.69L11.28 23.32L12.06 21.58Z" fill="white"/>
<path d="M52.37 40.76L51.08 39.12L50.3 40.86L52.37 40.76Z" fill="white"/>
<path d="M52.59 28.43C52.92 28.37 53.11 28.09 53.02 27.62L52.71 26L51.58 26.21L51.89 27.84C51.97 28.3 52.25 28.49 52.59 28.43Z" fill="white"/>
<path d="M9.8 34.02C9.47 34.08 9.28 34.37 9.37 34.83L9.69 36.45L10.82 36.23L10.5 34.6C10.41 34.15 10.14 33.96 9.8 34.02Z" fill="white"/>
<path d="M53.72 28.09C54.04 28.03 54.22 27.77 54.14 27.33L53.85 25.78L52.76 25.99L53.05 27.54C53.13 27.98 53.4 28.15 53.72 28.09Z" fill="white"/>
<path d="M52.47 37.39C53.14 37.54 53.69 37.2 53.88 36.34L54.17 35.05L51.92 34.55L51.63 35.84C51.44 36.7 51.8 37.24 52.47 37.39Z" fill="white"/>
<path d="M31.19 0C13.97 0 0 13.97 0 31.19C0 48.42 13.97 62.38 31.19 62.38C48.41 62.38 62.38 48.41 62.38 31.19C62.38 13.97 48.42 0 31.19 0ZM54.19 25.21L54.59 27.35C54.71 28 54.45 28.4 53.99 28.49C53.61 28.56 53.28 28.39 53.11 27.97C53.14 28.51 52.88 28.84 52.47 28.92C52 29.01 51.59 28.7 51.47 28.05L51.05 25.81L54.19 25.21ZM49.89 19.62L51.5 22.75L51.11 22.95L49.5 19.82L49.89 19.62ZM48.6 15.1L47.39 18.46L47.03 18.09L47.34 17.21L46 15.79L45.11 16.05L44.76 15.68L48.18 14.64L48.6 15.1ZM46.3 12.93L44.29 15.41L43.9 15.1L45.91 12.62L46.3 12.93ZM42.24 10.16L43.91 11.19C44.68 11.66 44.81 12.21 44.52 12.69C44.27 13.1 43.82 13.24 43.21 12.98L43.39 14.62L42.94 14.34L42.75 12.73L41.67 12.06L41 13.15L40.58 12.89L42.24 10.16ZM39.02 8.81L39.6 9.02L40.01 12.57L39.53 12.39L39.42 11.47L37.58 10.8L36.9 11.43L36.42 11.25L39.02 8.81ZM32.26 7.43L32.7 7.49L33.89 10.36L35.76 7.88L36.2 7.94L35.79 11.11L35.3 11.05L35.68 8.07L33.91 10.41L33.85 10.4L32.73 7.69L32.35 10.67L31.86 10.61L32.26 7.43ZM28.91 9.31L28.99 9.75L25.53 10.39L25.45 9.96L28.91 9.31ZM15.42 13.44L19.19 14.3L17.3 11.94L17.69 11.63L19.69 14.12L19.35 14.39L15.59 13.53L17.48 15.89L17.09 16.2L15.09 13.71L15.42 13.44ZM14.19 14.67L16.5 16.87L16.16 17.23L13.85 15.03L14.19 14.67ZM8.05 26.02C8.3 24.88 9.09 24.38 10 24.58C10.91 24.78 11.42 25.56 11.17 26.71L10.78 28.49L7.66 27.8L8.05 26.02ZM7.49 30.67L10.71 29.11L10.7 29.63L9.86 30.04L9.83 32L10.65 32.44L10.64 32.95L7.47 31.3L7.49 30.67ZM8.22 37.25L7.8 35.11C7.67 34.46 7.93 34.06 8.39 33.97C8.77 33.9 9.1 34.07 9.27 34.49C9.24 33.95 9.49 33.61 9.91 33.53C10.38 33.44 10.79 33.74 10.92 34.4L11.35 36.64L8.22 37.25ZM12.53 42.82L10.91 39.7L11.3 39.5L12.92 42.62L12.53 42.82ZM13.04 21.53L12.11 21.58L11.31 23.37L11.89 24.1L11.68 24.57L9.42 21.8L9.67 21.23L13.24 21.07L13.04 21.53ZM10.99 18.67L11.24 18.32L15.1 18.15L12.64 16.38L12.93 15.98L15.52 17.85L15.27 18.2L11.42 18.37L13.87 20.14L13.58 20.54L10.99 18.67ZM13.84 47.35L15.04 43.98L15.4 44.35L15.09 45.23L16.44 46.64L17.33 46.37L17.68 46.74L14.26 47.79L13.84 47.35ZM16.16 49.51L18.16 47.03L18.55 47.34L16.55 49.82L16.16 49.51ZM20.2 52.26L18.52 51.24C17.75 50.77 17.62 50.22 17.91 49.74C18.16 49.33 18.61 49.18 19.22 49.45L19.03 47.81L19.49 48.09L19.68 49.7L20.77 50.36L21.44 49.27L21.86 49.53L20.2 52.26ZM20.65 12.61V13.54L20.2 13.77L20.18 10.2L20.73 9.92L23.6 12.03L23.14 12.26L22.39 11.71L20.65 12.61ZM23.44 53.6L22.86 53.39L22.43 49.84L22.92 50.01L23.04 50.93L24.88 51.59L25.56 50.95L26.04 51.12L23.44 53.6ZM30.22 54.96L29.78 54.91L28.58 52.05L26.72 54.54L26.28 54.49L26.67 51.32L27.16 51.38L26.79 54.36L28.56 52L28.62 52.01L29.75 54.72L30.12 51.74L30.61 51.8L30.22 54.96ZM33.41 53.07L33.33 52.63L36.79 52L36.87 52.44L33.41 53.07ZM31.19 39.38C26.67 39.38 23 35.71 23 31.19C23 26.67 26.67 23 31.19 23C35.71 23 39.38 26.67 39.38 31.19C39.38 35.72 35.72 39.38 31.19 39.38ZM41.58 52.51L38.71 50.38L39.17 50.15L39.92 50.7L41.67 49.82L41.68 48.89L42.14 48.66V52.23L41.58 52.51ZM46.9 48.99L43.13 48.11L45.02 50.48L44.63 50.79L42.64 48.29L42.98 48.02L46.74 48.9L44.86 46.53L45.25 46.22L47.24 48.72L46.9 48.99ZM48.13 47.78L45.82 45.57L46.16 45.21L48.47 47.42L48.13 47.78ZM51.09 44.13L47.23 44.29L49.68 46.07L49.39 46.47L46.81 44.6L47.06 44.25L50.91 44.09L48.46 42.31L48.75 41.91L51.33 43.78L51.09 44.13ZM52.67 41.23L49.1 41.38L49.31 40.91L50.24 40.87L51.05 39.09L50.47 38.36L50.68 37.9L52.93 40.68L52.67 41.23ZM54.32 36.43C54.07 37.57 53.27 38.07 52.37 37.87C51.47 37.67 50.95 36.88 51.21 35.74L51.6 33.96L54.72 34.65L54.32 36.43ZM51.68 33.34L51.69 32.82L52.53 32.41L52.56 30.45L51.74 30.01L51.75 29.5L54.92 31.15L54.91 31.77L51.68 33.34Z" fill="white"/>
<path d="M52.57 32.39L54.43 31.47L52.6 30.48L52.57 32.39Z" fill="white"/>
<path d="M41.64 51.95L41.67 49.87L39.96 50.73L41.64 51.95Z" fill="white"/>
</g>
<defs>
<clipPath id="clip0_4_2">
<rect width="62.38" height="62.38" fill="white"/>
</clipPath>
</defs>
    <animateTransform attributeType="xml" attributeName="transform" type="rotate" from="360" to="0" dur="15s" additive="sum" repeatCount="indefinite" />
</svg>
