<svg width="12" height="17" viewBox="0 0 12 17" fill="none" xmlns="http://www.w3.org/2000/svg">
<g clip-path="url(#clip0_3_22)">
<path d="M6.45 0.230062C6.23 -0.0699375 5.87 -0.0799375 5.64 0.220062C4.26 1.96006 0 7.65006 0 11.0001C0 13.9601 2.61 16.3701 5.82 16.3701C9.03 16.3701 11.64 13.9601 11.64 11.0001C11.63 7.67006 7.73 2.00006 6.45 0.230062ZM1.3 11.0001C1.3 8.73006 3.22 5.89006 4.71 3.59006C5.04 3.08006 5.83 3.32006 5.83 3.92006V14.1101C5.83 14.7301 5.25 15.1601 4.65 15.0201C2.72 14.5401 1.3 12.9201 1.3 11.0001Z" fill="white"/>
</g>
<defs>
<clipPath id="clip0_3_22">
<rect width="11.64" height="16.36" fill="white"/>
</clipPath>
</defs>
</svg>
