<svg width="15" height="15" viewBox="0 0 34 32" fill="none" xmlns="http://www.w3.org/2000/svg">
<path d="M30.57 27.45C29.43 27.07 28.62 26.51 28.09 26.09C27.44 25.58 27.45 25.05 27.93 24.9C28.5 24.73 28.84 24.68 29.27 24.69C29.69 24.7 30.3 24.67 30.61 24.58C31.38 24.35 31.21 23.72 30.78 23.36C30.68 23.27 30.5 23.2 30.29 23.12C29.63 22.89 28.72 22.62 28.46 22.28C28.21 21.95 28.54 21.73 30.12 21.75C30.44 21.76 30.74 21.74 31 21.71C32.03 21.6 32.6 21.27 32.58 20.92C32.5547 20.4772 31.94 20.32 31.61 20.12C32.11 18.53 32.37 16.83 32.33 15.07C32.14 7.07 25.64 0.4 17.64 0.02C8.76 -0.41 1.42 6.67 1.42 15.46C1.42 16.59 1.54 17.69 1.77 18.75C1.9 19.34 1.69 19.99 1.16 20.29C1.1 20.32 1.05 20.35 0.990001 20.37C-0.169999 20.79 -0.489999 22.96 0.990001 23.61C2.1 24.1 3.11 24.04 4.1 24.15C4.42 24.19 4.75 24.25 5.07 24.35C6.34 24.76 6.84 26.15 6.35 26.77C6.34 26.78 6.33 26.8 6.32 26.81C5.77 27.41 5.02 27.36 4.04 27.61C3.29 27.8 2.89 29.67 5.07 29.77C7.25 29.87 10.71 29.73 11.79 30.06C11.8 30.06 11.81 30.07 11.82 30.07C13.41 30.62 15.11 30.92 16.88 30.92C18.95 30.92 20.54 30.68 22.37 29.93C22.47 29.88 22.63 29.83 22.74 29.83C25.17 29.9 29.01 31.08 30.02 31.21C31.19 31.36 33.13 31.13 33.14 29.7C33.13 28.73 32.93 28.23 30.57 27.45ZM20.66 14.32C21.25 12.97 22.38 12.17 23.19 12.52C24 12.87 24.19 14.25 23.6 15.6C23.01 16.95 21.88 17.75 21.07 17.4C20.25 17.05 20.07 15.67 20.66 14.32ZM12.2 8.69C12.79 7.34 13.92 6.54 14.73 6.89C15.54 7.24 15.73 8.62 15.14 9.97C14.55 11.32 13.42 12.12 12.61 11.77C11.79 11.41 11.61 10.03 12.2 8.69ZM23.93 24.88C23.1 24.92 21.65 24.75 20.6 24.88C19.55 25.01 18.67 25.19 18.93 25.49C19.19 25.8 20.42 25.62 20.69 25.75C20.95 25.88 20.82 26.1 19.72 26.1C18.62 26.1 17.26 26.01 17.18 25.57C17.1 25.13 18.16 24.87 19.69 24.74C21.22 24.61 22.98 24.52 23.41 24.43C23.85 24.34 23.92 24.19 23.95 24.01C23.98 23.79 23.85 23.51 23.26 23.3C22.71 23.1 21.87 22.99 19.56 22.95C16.1 22.88 14.13 21.65 12.91 20.67C11.69 19.69 10.03 17.14 9.51 14.52C9.3 13.45 9.32 12.9 9.73 13.38C9.73 13.38 11.7 17.49 14.82 19.7C18.01 21.96 19.03 22.11 20.83 22.46C22.63 22.81 24.02 22.97 24.43 23.07C25.03 23.22 25.44 23.51 25.44 23.9C25.42 24.31 24.77 24.83 23.93 24.88Z" fill="white"/>
</svg>
