<svg width="16" height="18" viewBox="0 0 16 18" fill="none" xmlns="http://www.w3.org/2000/svg">
<g clip-path="url(#clip0_3_24)">
<path d="M9.81 12.06C7.39 11.58 5.46 9.53 5.07 7.01C4.87 5.69 5.07 4.44 5.57 3.35C5.83 2.8 5.32 2.2 4.77 2.41C1.87 3.52 -0.16 6.47 0.00999998 9.88C0.2 13.62 3.15 16.74 6.77 17.01C9.94 17.25 12.72 15.4 13.95 12.66C14.2 12.1 13.64 11.55 13.09 11.77C12.09 12.16 10.98 12.29 9.81 12.06Z" fill="white"/>
<path d="M15.08 6.02C14.36 6.29 13.86 6.81 13.6 7.55C13.54 7.73 13.27 7.73 13.2 7.55C12.94 6.81 12.43 6.29 11.72 6.02C11.52 5.95 11.52 5.69 11.72 5.61C12.44 5.34 12.94 4.82 13.2 4.08C13.26 3.9 13.53 3.9 13.6 4.08C13.86 4.82 14.37 5.34 15.08 5.61C15.27 5.69 15.27 5.95 15.08 6.02Z" fill="white"/>
<path d="M10.79 1.46C10.27 1.65 9.9 2.02 9.72 2.55C9.67 2.68 9.49 2.68 9.45 2.55C9.26 2.02 8.9 1.65 8.38 1.46C8.25 1.41 8.25 1.24 8.38 1.19C8.9 1 9.26 0.63 9.45 0.0999996C9.5 -0.0300004 9.68 -0.0300004 9.72 0.0999996C9.9 0.63 10.27 1 10.79 1.19C10.92 1.24 10.92 1.41 10.79 1.46Z" fill="white"/>
</g>
<defs>
<clipPath id="clip0_3_24">
<rect width="15.22" height="17.03" fill="white"/>
</clipPath>
</defs>
</svg>
