<svg width="56" height="55" viewBox="0 0 56 55" fill="none" xmlns="http://www.w3.org/2000/svg">
<path d="M38.09 1.86L34.54 5.46L34.44 5.43L33.54 0.45L31.98 5.5L31.49 5.35L33.14 0L33.57 0.13L34.51 5.36L38.24 1.57L38.67 1.7L37.01 7.05L36.52 6.9L38.09 1.86Z" fill="white"/>
<path d="M41.64 6.97L42.41 5.69L42.82 5.94L40.76 9.37L40.35 9.12L41.12 7.84C40.48 8.59 39.62 8.78 38.78 8.27C37.79 7.68 37.53 6.56 38.18 5.48C38.83 4.4 39.94 4.11 40.93 4.7C41.76 5.21 42 6.06 41.64 6.97ZM40.85 5.13C40.03 4.63 39.1 4.88 38.58 5.74C38.07 6.59 38.29 7.53 39.12 8.02C39.94 8.51 40.87 8.27 41.38 7.41C41.89 6.55 41.67 5.62 40.85 5.13Z" fill="white"/>
<path d="M41.61 10.14L41.24 9.83L43.81 6.76L44.18 7.07L43.33 8.09C44.02 7.51 44.81 7.49 45.48 8.05L45.21 8.38C44.52 7.8 43.65 7.72 43.03 8.45L41.61 10.14Z" fill="white"/>
<path d="M43.21 11.57L46.05 8.75L46.39 9.09L43.55 11.91L43.21 11.57ZM47.41 8.24C47.27 8.38 47.06 8.39 46.91 8.23C46.76 8.08 46.76 7.87 46.91 7.73C47.06 7.58 47.27 7.59 47.41 7.74C47.56 7.89 47.56 8.09 47.41 8.24Z" fill="white"/>
<path d="M48.21 13.62L49.39 12.72L49.68 13.1L46.5 15.52L46.21 15.14L47.4 14.24C46.53 14.7 45.66 14.56 45.07 13.77C44.37 12.85 44.55 11.72 45.54 10.96C46.54 10.2 47.68 10.34 48.37 11.25C48.97 12.04 48.88 12.91 48.21 13.62ZM48.16 11.62C47.58 10.86 46.63 10.74 45.83 11.34C45.04 11.94 44.9 12.89 45.48 13.65C46.06 14.41 47.01 14.53 47.8 13.93C48.59 13.33 48.74 12.38 48.16 11.62Z" fill="white"/>
<path d="M51.13 21.72L49.46 16.98L49.88 16.83L51.55 21.57L51.13 21.72Z" fill="white"/>
<path d="M51.43 29.26C50.59 29.33 49.94 28.75 49.86 27.72L49.62 24.76L55.21 24.31L55.43 27.11C55.51 28.1 54.97 28.73 54.16 28.79C53.5 28.84 52.96 28.49 52.73 27.83C52.69 28.67 52.18 29.2 51.43 29.26ZM50.3 27.58C50.36 28.38 50.89 28.82 51.58 28.76C52.27 28.71 52.71 28.19 52.65 27.39L52.46 25.04L50.11 25.23L50.3 27.58ZM54.81 24.86L52.54 25.04L52.72 27.24C52.78 27.99 53.29 28.4 53.95 28.35C54.61 28.3 55.05 27.81 54.99 27.06L54.81 24.86Z" fill="white"/>
<path d="M51.56 33.53L53.02 33.82L52.93 34.29L49.01 33.52L49.1 33.05L50.57 33.34C49.65 33 49.18 32.25 49.37 31.29C49.59 30.16 50.55 29.54 51.79 29.78C53.03 30.02 53.67 30.96 53.45 32.09C53.25 33.05 52.54 33.56 51.56 33.53ZM53.03 32.16C53.21 31.22 52.67 30.43 51.69 30.24C50.72 30.05 49.91 30.57 49.73 31.52C49.54 32.46 50.09 33.24 51.06 33.44C52.04 33.62 52.84 33.1 53.03 32.16Z" fill="white"/>
<path d="M49.86 38.14L52.71 39.33L52.53 39.77L47.36 37.61L47.54 37.17L48.92 37.75C48.09 37.23 47.77 36.4 48.15 35.5C48.59 34.44 49.66 34.02 50.82 34.5C51.99 34.99 52.43 36.04 51.99 37.1C51.61 38 50.81 38.36 49.86 38.14ZM51.57 37.09C51.94 36.2 51.56 35.32 50.64 34.93C49.72 34.55 48.83 34.9 48.46 35.79C48.09 36.68 48.47 37.55 49.38 37.94C50.31 38.32 51.2 37.98 51.57 37.09Z" fill="white"/>
<path d="M47.26 42.32L48.49 43.15L48.22 43.55L44.91 41.31L45.18 40.91L46.42 41.75C45.71 41.08 45.56 40.2 46.12 39.39C46.77 38.44 47.9 38.24 48.94 38.94C49.99 39.65 50.21 40.77 49.57 41.72C49 42.54 48.15 42.73 47.26 42.32ZM49.14 41.64C49.68 40.85 49.49 39.9 48.66 39.34C47.84 38.78 46.89 38.95 46.35 39.75C45.81 40.54 46.01 41.48 46.83 42.04C47.66 42.59 48.6 42.43 49.14 41.64Z" fill="white"/>
<path d="M45.87 43.69L44.23 42.04L44.57 41.7L47.39 44.54L47.05 44.88L46.15 43.97C46.63 44.68 46.57 45.47 45.93 46.1C45.2 46.82 44.31 46.8 43.53 46.02L41.89 44.36L42.23 44.02L43.85 45.65C44.45 46.26 45.19 46.27 45.78 45.68C46.36 45.1 46.42 44.32 45.87 43.69Z" fill="white"/>
<path d="M41.3 44.72L43.73 47.9L43.35 48.19L40.92 45.01L41.3 44.72ZM44.05 49.32C43.93 49.16 43.95 48.95 44.12 48.82C44.29 48.69 44.5 48.72 44.62 48.88C44.75 49.05 44.71 49.25 44.55 49.38C44.38 49.51 44.18 49.48 44.05 49.32Z" fill="white"/>
<path d="M41.08 47.79L39.92 45.77L40.34 45.53L42.34 48.99L41.92 49.23L41.28 48.12C41.57 48.93 41.3 49.68 40.53 50.12C39.64 50.63 38.78 50.38 38.23 49.43L37.06 47.41L37.48 47.17L38.63 49.16C39.06 49.9 39.76 50.1 40.49 49.68C41.2 49.28 41.46 48.54 41.08 47.79Z" fill="white"/>
<path d="M34.2 51.09L34.68 52.5L34.22 52.65L32.94 48.86L33.4 48.71L33.88 50.13C33.72 49.16 34.13 48.38 35.07 48.06C36.16 47.69 37.18 48.22 37.59 49.41C38 50.61 37.5 51.64 36.41 52.01C35.46 52.32 34.66 51.96 34.2 51.09ZM36.11 51.68C37.02 51.37 37.44 50.5 37.12 49.56C36.8 48.62 35.95 48.18 35.04 48.49C34.13 48.8 33.72 49.66 34.04 50.6C34.35 51.55 35.2 51.99 36.11 51.68Z" fill="white"/>
<path d="M25.59 51.28L30.62 51.2L30.63 51.65L25.6 51.73L25.59 51.28Z" fill="white"/>
<path d="M16.49 52.39L20.16 48.92L20.26 48.95L20.99 53.95L22.73 48.96L23.21 49.13L21.37 54.42L20.95 54.27L20.19 49.01L16.34 52.67L15.92 52.52L17.76 47.23L18.24 47.4L16.49 52.39Z" fill="white"/>
<path d="M13.12 47.16L12.31 48.41L11.91 48.15L14.08 44.79L14.48 45.05L13.67 46.31C14.33 45.58 15.2 45.42 16.02 45.96C16.99 46.59 17.21 47.71 16.53 48.77C15.84 49.83 14.73 50.08 13.76 49.45C12.94 48.91 12.72 48.06 13.12 47.16ZM13.84 49.03C14.65 49.55 15.58 49.34 16.13 48.5C16.67 47.67 16.48 46.72 15.67 46.2C14.86 45.68 13.93 45.89 13.39 46.73C12.85 47.57 13.03 48.51 13.84 49.03Z" fill="white"/>
<path d="M13.23 43.99L13.59 44.31L10.92 47.29L10.56 46.97L11.45 45.98C10.74 46.54 9.96 46.53 9.3 45.94L9.58 45.63C10.25 46.23 11.11 46.34 11.76 45.63L13.23 43.99Z" fill="white"/>
<path d="M7.4 45.71C7.55 45.57 7.76 45.58 7.9 45.73C8.04 45.88 8.03 46.1 7.89 46.23C7.74 46.37 7.53 46.36 7.39 46.21C7.24 46.06 7.25 45.85 7.4 45.71ZM11.71 42.53L8.78 45.25L8.45 44.9L11.38 42.18L11.71 42.53Z" fill="white"/>
<path d="M6.78 40.31L5.57 41.17L5.29 40.78L8.55 38.47L8.83 38.86L7.61 39.73C8.49 39.3 9.36 39.47 9.93 40.27C10.6 41.21 10.39 42.34 9.36 43.07C8.33 43.8 7.2 43.62 6.53 42.68C5.96 41.87 6.08 41 6.78 40.31ZM6.76 42.31C7.31 43.09 8.26 43.25 9.08 42.67C9.89 42.1 10.06 41.15 9.51 40.37C8.95 39.58 8 39.44 7.2 40.01C6.38 40.59 6.2 41.53 6.76 42.31Z" fill="white"/>
<path d="M4.12 32.1L5.63 36.9L5.2 37.03L3.69 32.23L4.12 32.1Z" fill="white"/>
<path d="M4.23 24.45C5.07 24.46 5.66 25.1 5.64 26.13L5.6 29.1L0 29.01L0.04 26.2C0.05 25.21 0.65 24.63 1.46 24.65C2.12 24.66 2.63 25.06 2.79 25.74C2.93 24.92 3.48 24.44 4.23 24.45ZM0.46 28.51L2.73 28.54L2.76 26.33C2.77 25.58 2.31 25.12 1.64 25.11C0.98 25.1 0.5 25.54 0.49 26.29L0.46 28.51ZM5.19 26.23C5.2 25.43 4.72 24.94 4.03 24.93C3.34 24.92 2.85 25.39 2.83 26.19L2.79 28.54L5.14 28.58L5.19 26.23Z" fill="white"/>
<path d="M4.09 20.29L2.64 19.95L2.75 19.48L6.65 20.39L6.54 20.86L5.08 20.52C5.99 20.9 6.43 21.66 6.21 22.62C5.95 23.74 4.96 24.34 3.74 24.05C2.51 23.76 1.89 22.8 2.16 21.67C2.38 20.71 3.11 20.22 4.09 20.29ZM2.57 21.6C2.35 22.54 2.87 23.35 3.84 23.57C4.81 23.79 5.63 23.3 5.85 22.36C6.07 21.42 5.55 20.62 4.58 20.4C3.61 20.18 2.79 20.67 2.57 21.6Z" fill="white"/>
<path d="M5.95 15.73L3.14 14.45L3.34 14.01L8.44 16.34L8.24 16.78L6.88 16.16C7.69 16.71 7.98 17.54 7.57 18.44C7.09 19.49 6.01 19.87 4.87 19.35C3.72 18.82 3.31 17.76 3.79 16.71C4.19 15.81 5 15.47 5.95 15.73ZM4.21 16.72C3.81 17.59 4.16 18.49 5.07 18.91C5.97 19.32 6.88 19 7.28 18.12C7.68 17.25 7.33 16.36 6.43 15.94C5.51 15.53 4.61 15.85 4.21 16.72Z" fill="white"/>
<path d="M8.69 11.65L7.49 10.77L7.77 10.38L11 12.75L10.72 13.14L9.51 12.26C10.2 12.96 10.31 13.84 9.73 14.63C9.05 15.56 7.91 15.72 6.9 14.98C5.88 14.23 5.69 13.11 6.37 12.18C6.95 11.38 7.81 11.21 8.69 11.65ZM6.78 12.27C6.21 13.05 6.37 14 7.18 14.59C7.98 15.17 8.93 15.04 9.5 14.26C10.07 13.48 9.9 12.54 9.1 11.96C8.29 11.37 7.34 11.5 6.78 12.27Z" fill="white"/>
<path d="M10.14 10.31L11.72 12.02L11.37 12.35L8.65 9.41L9 9.08L9.87 10.02C9.42 9.29 9.51 8.51 10.17 7.9C10.92 7.2 11.82 7.26 12.56 8.06L14.15 9.78L13.8 10.11L12.24 8.42C11.66 7.79 10.92 7.75 10.31 8.32C9.69 8.88 9.61 9.66 10.14 10.31Z" fill="white"/>
<path d="M12.14 4.76C12.26 4.92 12.23 5.13 12.05 5.26C11.88 5.38 11.67 5.34 11.55 5.18C11.43 5 11.47 4.8 11.64 4.68C11.82 4.55 12.02 4.59 12.14 4.76ZM14.73 9.44L12.41 6.18L12.8 5.9L15.12 9.16L14.73 9.44Z" fill="white"/>
<path d="M15.07 6.38L16.16 8.44L15.74 8.66L13.86 5.13L14.28 4.91L14.88 6.04C14.62 5.22 14.91 4.48 15.7 4.06C16.6 3.58 17.46 3.86 17.97 4.83L19.07 6.89L18.65 7.12L17.57 5.09C17.17 4.33 16.47 4.11 15.73 4.5C15 4.88 14.72 5.61 15.07 6.38Z" fill="white"/>
<path d="M22.04 3.33L21.61 1.9L22.07 1.76L23.22 5.59L22.76 5.73L22.33 4.3C22.46 5.27 22.02 6.04 21.08 6.32C19.98 6.65 18.97 6.09 18.61 4.89C18.25 3.68 18.78 2.67 19.88 2.34C20.82 2.05 21.61 2.45 22.04 3.33ZM20.15 2.67C19.23 2.95 18.79 3.8 19.07 4.76C19.36 5.71 20.2 6.18 21.12 5.9C22.04 5.62 22.48 4.77 22.19 3.82C21.9 2.86 21.07 2.39 20.15 2.67Z" fill="white"/>
<path d="M30.15 3.41L25.12 3.32L25.13 2.87L30.16 2.96L30.15 3.41Z" fill="white"/>
    <animateTransform attributeType="xml" attributeName="transform" type="rotate" from="-360" to="0" dur="20s" additive="sum" repeatCount="indefinite" />
</svg>
