<svg width="19" height="19" viewBox="0 0 19 19" fill="none" xmlns="http://www.w3.org/2000/svg">
<path d="M9.37 3.45H8.75C8.36 3.45 8.04 3.13 8.04 2.74V0.71C8.04 0.32 8.36 0 8.75 0H9.37C9.76 0 10.08 0.32 10.08 0.71V2.73C10.09 3.13 9.77 3.45 9.37 3.45Z" fill="white"/>
<path d="M9.37 18.12H8.75C8.36 18.12 8.04 17.8 8.04 17.41V15.39C8.04 15 8.36 14.68 8.75 14.68H9.37C9.76 14.68 10.08 15 10.08 15.39V17.41C10.09 17.81 9.77 18.12 9.37 18.12Z" fill="white"/>
<path d="M5.31 4.87L4.87 5.31C4.59 5.59 4.14 5.59 3.86 5.31L2.44 3.88C2.16 3.6 2.16 3.15 2.44 2.87L2.88 2.43C3.16 2.15 3.61 2.15 3.89 2.43L5.32 3.86C5.59 4.14 5.59 4.59 5.31 4.87Z" fill="white"/>
<path d="M15.69 15.25L15.25 15.69C14.97 15.97 14.52 15.97 14.24 15.69L12.81 14.26C12.53 13.98 12.53 13.53 12.81 13.25L13.25 12.81C13.53 12.53 13.98 12.53 14.26 12.81L15.69 14.24C15.97 14.52 15.97 14.97 15.69 15.25Z" fill="white"/>
<path d="M3.45 8.75V9.37C3.45 9.76 3.13 10.08 2.74 10.08H0.71C0.32 10.09 0 9.77 0 9.37V8.75C0 8.36 0.32 8.04 0.71 8.04H2.73C3.13 8.04 3.45 8.36 3.45 8.75Z" fill="white"/>
<path d="M18.12 8.75V9.37C18.12 9.76 17.8 10.08 17.41 10.08H15.39C15 10.08 14.68 9.76 14.68 9.37V8.75C14.68 8.36 15 8.04 15.39 8.04H17.41C17.81 8.04 18.12 8.36 18.12 8.75Z" fill="white"/>
<path d="M4.87 12.82L5.31 13.26C5.59 13.54 5.59 13.99 5.31 14.27L3.88 15.7C3.6 15.98 3.15 15.98 2.87 15.7L2.43 15.26C2.15 14.98 2.15 14.53 2.43 14.25L3.86 12.82C4.14 12.54 4.59 12.54 4.87 12.82Z" fill="white"/>
<path d="M15.25 2.44L15.69 2.88C15.97 3.16 15.97 3.61 15.69 3.89L14.26 5.32C13.98 5.6 13.53 5.6 13.25 5.32L12.81 4.88C12.53 4.6 12.53 4.15 12.81 3.87L14.24 2.44C14.52 2.16 14.97 2.16 15.25 2.44Z" fill="white"/>
<path d="M9.06 13.44C11.479 13.44 13.44 11.479 13.44 9.06C13.44 6.64099 11.479 4.68 9.06 4.68C6.64099 4.68 4.68 6.64099 4.68 9.06C4.68 11.479 6.64099 13.44 9.06 13.44Z" fill="white"/>
</svg>
